<svg viewBox="0 0 70 70" xmlns="http://www.w3.org/2000/svg" xmlns:xlink="http://www.w3.org/1999/xlink" width="70.000000" height="70.000000" fill="none">
	<rect id="clock" width="70.000000" height="70.000000" x="0.000000" y="0.000000" />
	<g id="g">
		<path id="path" d="M35 0C15.701 0 0 15.701 0 35C0 54.299 15.701 70 35 70C54.299 70 70 54.299 70 35C70 15.701 54.299 0 35 0ZM35 67.6667C16.9878 67.6667 2.33333 53.0122 2.33333 35C2.33333 16.9878 16.9878 2.33333 35 2.33333C53.0122 2.33333 67.6667 16.9878 67.6667 35C67.6667 53.0122 53.0122 67.6667 35 67.6667Z" fill="rgb(0,103,182)" fill-rule="nonzero" />
		<path id="path" d="M36.1667 30.3579L36.1667 18.5256C36.1667 17.8804 35.644 17.3589 35 17.3589C34.356 17.3589 33.8333 17.8804 33.8333 18.5256L33.8333 30.3579C32.2012 30.7826 30.9237 32.0601 30.499 33.6922L22.1667 33.6922C21.5227 33.6922 21 34.2137 21 34.8589C21 35.5041 21.5227 36.0256 22.1667 36.0256L30.499 36.0256C31.0205 38.0322 32.8323 39.5256 35 39.5256C37.5737 39.5256 39.6667 37.4326 39.6667 34.8589C39.6667 32.6901 38.1733 30.8794 36.1667 30.3579ZM35 37.1922C33.7132 37.1922 32.6667 36.1457 32.6667 34.8589C32.6667 33.5721 33.7132 32.5256 35 32.5256C36.2868 32.5256 37.3333 33.5721 37.3333 34.8589C37.3333 36.1457 36.2868 37.1922 35 37.1922Z" fill="rgb(0,103,182)" fill-rule="nonzero" />
		<path id="path" d="M35 11.5254C35.644 11.5254 36.1667 11.0039 36.1667 10.3587L36.1667 9.19206C36.1667 8.54689 35.644 8.02539 35 8.02539C34.356 8.02539 33.8334 8.54689 33.8334 9.19206L33.8334 10.3587C33.8334 11.0039 34.356 11.5254 35 11.5254Z" fill="rgb(0,103,182)" fill-rule="nonzero" />
		<path id="path" d="M35 58.1921C34.356 58.1921 33.8334 58.7136 33.8334 59.3588L33.8334 60.5255C33.8334 61.1706 34.356 61.6921 35 61.6921C35.644 61.6921 36.1667 61.1706 36.1667 60.5255L36.1667 59.3588C36.1667 58.7136 35.644 58.1921 35 58.1921Z" fill="rgb(0,103,182)" fill-rule="nonzero" />
		<path id="path" d="M60.6667 33.6921L59.5 33.6921C58.856 33.6921 58.3334 34.2136 58.3334 34.8588C58.3334 35.504 58.856 36.0255 59.5 36.0255L60.6667 36.0255C61.3107 36.0255 61.8334 35.504 61.8334 34.8588C61.8334 34.2136 61.3107 33.6921 60.6667 33.6921Z" fill="rgb(0,103,182)" fill-rule="nonzero" />
		<path id="path" d="M10.5 33.6921L9.33329 33.6921C8.68929 33.6921 8.16663 34.2136 8.16663 34.8588C8.16663 35.504 8.68929 36.0255 9.33329 36.0255L10.5 36.0255C11.144 36.0255 11.6666 35.504 11.6666 34.8588C11.6666 34.2136 11.144 33.6921 10.5 33.6921Z" fill="rgb(0,103,182)" fill-rule="nonzero" />
		<path id="path" d="M52.3238 15.8842L51.499 16.709C51.0428 17.1652 51.0428 17.9025 51.499 18.3587C51.7265 18.5862 52.0252 18.7005 52.3238 18.7005C52.6225 18.7005 52.9212 18.5862 53.1487 18.3587L53.9735 17.5338C54.4297 17.0777 54.4297 16.3403 53.9735 15.8842C53.5173 15.428 52.78 15.4292 52.3238 15.8842Z" fill="rgb(0,103,182)" fill-rule="nonzero" />
		<path id="path" d="M16.8513 51.3578L16.0265 52.1826C15.5703 52.6388 15.5703 53.3761 16.0265 53.8323C16.254 54.0598 16.5526 54.1741 16.8513 54.1741C17.15 54.1741 17.4486 54.0598 17.6761 53.8323L18.5009 53.0075C18.9571 52.5513 18.9571 51.814 18.5009 51.3578C18.0448 50.9016 17.3063 50.9028 16.8513 51.3578Z" fill="rgb(0,103,182)" fill-rule="nonzero" />
		<path id="path" d="M53.1487 51.3577C52.6925 50.9016 51.9552 50.9016 51.499 51.3577C51.0428 51.8139 51.0428 52.5512 51.499 53.0074L52.3238 53.8322C52.5513 54.0597 52.85 54.1741 53.1487 54.1741C53.4473 54.1741 53.746 54.0597 53.9735 53.8322C54.4297 53.3761 54.4297 52.6388 53.9735 52.1826L53.1487 51.3577Z" fill="rgb(0,103,182)" fill-rule="nonzero" />
		<path id="path" d="M17.6761 15.8841C17.22 15.428 16.4826 15.428 16.0265 15.8841C15.5703 16.3403 15.5703 17.0776 16.0265 17.5338L16.8513 18.3586C17.0788 18.5861 17.3775 18.7005 17.6761 18.7005C17.9748 18.7005 18.2735 18.5861 18.5009 18.3586C18.9571 17.9025 18.9571 17.1651 18.5009 16.709L17.6761 15.8841Z" fill="rgb(0,103,182)" fill-rule="nonzero" />
	</g>
	<g id="g" />
	<g id="g" />
	<g id="g" />
	<g id="g" />
	<g id="g" />
	<g id="g" />
	<g id="g" />
	<g id="g" />
	<g id="g" />
	<g id="g" />
	<g id="g" />
	<g id="g" />
	<g id="g" />
	<g id="g" />
	<g id="g" />
</svg>
