<svg viewBox="0 0 70 70" xmlns="http://www.w3.org/2000/svg" xmlns:xlink="http://www.w3.org/1999/xlink" width="70.000000" height="70.000000" fill="none">
	<rect id="guarantee" width="70.000000" height="70.000000" x="0.000000" y="0.000000" />
	<path id="path" d="M68.4655 31.663C67.9875 31.0297 67.4931 30.3745 67.4144 29.8659C67.3291 29.3245 67.6025 28.5294 67.8672 27.7616C68.2522 26.6481 68.6864 25.3859 68.2959 24.1828C67.8989 22.9567 66.792 22.1834 65.8153 21.5009C65.1591 21.0427 64.482 20.5691 64.2425 20.1009C63.9975 19.6219 64.0117 18.7863 64.0248 17.9791C64.0445 16.7956 64.0664 15.4558 63.3172 14.4255C62.5647 13.3908 61.2784 12.9981 60.1442 12.6525C59.3753 12.4184 58.5791 12.1745 58.2039 11.7994C57.8277 11.4231 57.5848 10.6269 57.3508 9.85797C57.0052 8.72375 56.6125 7.4375 55.5767 6.685C54.5475 5.93578 53.2066 5.95656 52.0242 5.97734C51.217 5.99266 50.3803 6.00469 49.9023 5.75969C49.4342 5.52125 48.9606 4.84313 48.5023 4.18688C47.8209 3.21016 47.0477 2.10438 45.8216 1.70625C44.6173 1.31578 43.353 1.75 42.2384 2.13281C41.4706 2.3975 40.6733 2.66984 40.1341 2.58672C39.6255 2.50688 38.9703 2.0125 38.3359 1.53563C37.3822 0.815938 36.2994 0 35 0C33.7006 0 32.6178 0.815938 31.663 1.53563C31.0297 2.01359 30.3745 2.50688 29.8659 2.58672C29.3267 2.67313 28.5305 2.3975 27.7616 2.13281C26.647 1.74891 25.3848 1.31469 24.1828 1.70406C22.9567 2.10219 22.1834 3.20797 21.5009 4.18469C21.0427 4.83984 20.5691 5.51797 20.1009 5.75641C19.6219 6.00141 18.7852 5.98609 17.9791 5.97406C16.7956 5.95109 15.4558 5.93141 14.4255 6.68172C13.3908 7.43422 12.9981 8.72047 12.6525 9.85469C12.4184 10.6247 12.1745 11.4198 11.7994 11.7961C11.4231 12.1723 10.6269 12.4152 9.85687 12.6503C8.72266 12.9959 7.4375 13.3886 6.68391 14.4233C5.93469 15.4525 5.95656 16.7934 5.97625 17.9769C5.98937 18.7852 6.0025 19.6197 5.75859 20.0998C5.52016 20.5669 4.84203 21.0405 4.18687 21.4988C3.21016 22.1813 2.10437 22.9545 1.70516 24.1806C1.31469 25.3848 1.75 26.647 2.13391 27.7616C2.39859 28.5305 2.67312 29.3245 2.58781 29.8659C2.50797 30.3745 2.01469 31.0297 1.53672 31.663C0.815938 32.6178 0 33.7006 0 35C0 36.2994 0.815938 37.3822 1.53563 38.337C2.01359 38.9703 2.50688 39.6266 2.58672 40.1352L4.74797 39.795C4.58391 38.7461 3.92219 37.8689 3.28234 37.0202C2.74422 36.3059 2.1875 35.5677 2.1875 35C2.1875 34.4323 2.74422 33.6941 3.28234 32.9798C3.92219 32.1311 4.58281 31.2539 4.74797 30.205C4.9175 29.1266 4.55328 28.07 4.20109 27.0484C3.91563 26.2205 3.62031 25.363 3.78547 24.8566C3.95719 24.3283 4.71078 23.8022 5.43922 23.2925C6.31422 22.6811 7.21984 22.0489 7.70656 21.0952C8.19875 20.1305 8.18125 19.0181 8.16266 17.9419C8.14844 17.0603 8.13422 16.1503 8.4525 15.7117C8.77516 15.2688 9.64906 15.0019 10.4956 14.7437C11.5216 14.4298 12.5836 14.1061 13.3459 13.3438C14.1083 12.5814 14.432 11.5205 14.7448 10.4945C15.003 9.64906 15.2688 8.77406 15.7128 8.45141C16.1514 8.13203 17.0625 8.14625 17.943 8.16156C19.0192 8.17906 20.1305 8.19766 21.0963 7.70547C22.05 7.21875 22.6822 6.31422 23.2947 5.43812C23.8033 4.70969 24.3305 3.95719 24.8588 3.78547C25.3641 3.61922 26.2216 3.91672 27.0495 4.20109C28.0722 4.55328 29.1277 4.91641 30.2061 4.74797C31.2539 4.58391 32.1322 3.92219 32.9809 3.28234C33.6941 2.74422 34.4323 2.1875 35 2.1875C35.5677 2.1875 36.3059 2.74422 37.0202 3.28234C37.8689 3.92219 38.7461 4.58281 39.795 4.74797C40.8713 4.91422 41.93 4.55328 42.9516 4.20109C43.7806 3.91563 44.6359 3.61922 45.1445 3.78547C45.6717 3.95719 46.1989 4.70969 46.7086 5.43813C47.32 6.31313 47.9533 7.21875 48.9059 7.70547C49.8706 8.19766 50.9873 8.18234 52.0592 8.16156C52.9408 8.14844 53.8519 8.13203 54.2905 8.45141C54.7334 8.77406 54.9992 9.64797 55.2584 10.4945C55.5712 11.5205 55.895 12.5825 56.6573 13.3448C57.4186 14.1072 58.4806 14.4309 59.5066 14.7437C60.3509 15.0019 61.2259 15.2687 61.5486 15.7117C61.868 16.1503 61.8527 17.0603 61.8384 17.9419C61.8209 19.0181 61.8034 20.1305 62.2956 21.0952C62.7823 22.0489 63.6869 22.6811 64.5619 23.2925C65.2903 23.8022 66.0428 24.3283 66.2156 24.8577C66.3797 25.3641 66.0855 26.2205 65.8 27.0484C65.4478 28.07 65.0847 29.1266 65.2531 30.205C65.4183 31.2528 66.08 32.1311 66.7187 32.9787C67.2558 33.6941 67.8125 34.4323 67.8125 35C67.8125 35.5677 67.2558 36.3059 66.7177 37.0212C66.0789 37.8689 65.4183 38.7461 65.252 39.795L67.4144 40.1352C67.4931 39.6266 67.9875 38.9714 68.4655 38.337C69.1841 37.3822 70 36.2994 70 35C70 33.7006 69.1841 32.6178 68.4655 31.663ZM59.5044 55.2573C58.4784 55.5702 57.4164 55.8939 56.6552 56.6562C55.8928 57.4175 55.5691 58.4795 55.2552 59.5055C54.9981 60.3509 54.7313 61.2248 54.2872 61.5475C53.8497 61.8658 52.9331 61.8505 52.0581 61.8373C50.9819 61.8198 49.8706 61.8023 48.9038 62.2945C47.9511 62.7812 47.3189 63.6858 46.7075 64.5608C46.1978 65.2892 45.6717 66.0417 45.1423 66.2145C44.6348 66.3808 43.7795 66.0855 42.9505 65.7989C41.9289 65.4478 40.8713 65.0902 39.7939 65.252C38.745 65.4172 37.8678 66.0789 37.0202 66.7177C36.3059 67.2558 35.5677 67.8125 35 67.8125C34.4323 67.8125 33.6941 67.2558 32.9788 66.7177C32.1311 66.0789 31.2528 65.4183 30.205 65.252C29.1298 65.0902 28.07 65.4478 27.0484 65.7989C26.2205 66.0844 25.3652 66.3808 24.8566 66.2145C24.3283 66.0428 23.8011 65.2892 23.2925 64.5608C22.68 63.6847 22.0478 62.7802 21.0952 62.2934C20.1305 61.8013 19.017 61.8188 17.943 61.8373C17.0614 61.8483 16.1503 61.8669 15.7117 61.5464C15.2688 61.2238 15.0019 60.3498 14.7438 59.5044C14.4298 58.4784 14.1061 57.4164 13.3438 56.6552C12.5814 55.8928 11.5205 55.5691 10.4934 55.2552C9.64797 54.9981 8.77297 54.7313 8.45141 54.2872L6.68281 55.5756C7.43531 56.6092 8.72156 57.0019 9.85469 57.3475C10.6247 57.5827 11.4209 57.8255 11.7972 58.2017C12.1734 58.578 12.4163 59.3731 12.6514 60.1431C12.997 61.2773 13.3897 62.5625 14.4244 63.315C15.4536 64.0664 16.7945 64.0413 17.9791 64.0227C18.7852 64.0139 19.6219 63.9964 20.1009 64.2403C20.568 64.4788 21.0416 65.1569 21.4998 65.8131C22.1823 66.7898 22.9556 67.8956 24.1817 68.2948C25.3838 68.682 26.647 68.2511 27.7616 67.8661C28.5305 67.6025 29.3267 67.3203 29.8659 67.4133C30.3745 67.492 31.0297 67.9864 31.663 68.4644C32.6178 69.1841 33.7006 70 35 70C36.2994 70 37.3822 69.1841 38.337 68.4655C38.9703 67.9875 39.6266 67.4931 40.1352 67.4144C40.6689 67.3203 41.4706 67.6025 42.2395 67.8672C43.3552 68.2522 44.6184 68.6875 45.8183 68.2959C47.0444 67.8989 47.8177 66.7909 48.5002 65.8142C48.9584 65.1591 49.4331 64.4809 49.8991 64.2425C50.3781 63.9964 51.2116 64.0095 52.0209 64.0248C53.1967 64.0434 54.5431 64.0664 55.5745 63.3172C56.6081 62.5647 57.0008 61.2795 57.3464 60.1453C57.5816 59.3764 57.8244 58.5791 58.2006 58.2039C58.5769 57.8277 59.372 57.5848 60.1409 57.3508C61.2751 57.0051 62.5614 56.6114 63.3139 55.5767L61.5453 54.2905C61.2248 54.7323 60.3498 54.9981 59.5044 55.2573Z" fill="rgb(0,103,182)" fill-rule="nonzero" />
	<path id="path" d="M8.75 50.3125L8.75 48.125C8.75 47.5202 8.26 47.0312 7.65625 47.0312L5.46875 47.0312L5.46875 49.2188L6.5625 49.2188L6.5625 50.3125C6.5625 50.9162 6.07141 51.4062 5.46875 51.4062C4.86609 51.4062 4.375 50.9162 4.375 50.3125L4.375 43.75C4.375 43.1463 4.86609 42.6562 5.46875 42.6562C6.07141 42.6562 6.5625 43.1463 6.5625 43.75L6.5625 44.8438L8.75 44.8438L8.75 43.75C8.75 41.9409 7.27781 40.4688 5.46875 40.4688C3.65969 40.4688 2.1875 41.9409 2.1875 43.75L2.1875 50.3125C2.1875 52.1216 3.65969 53.5938 5.46875 53.5938C7.27781 53.5938 8.75 52.1216 8.75 50.3125ZM9.84375 40.4688L9.84375 50.3125C9.84375 52.1216 11.3159 53.5938 13.125 53.5938C14.9341 53.5938 16.4062 52.1216 16.4062 50.3125L16.4062 40.4688L14.2188 40.4688L14.2188 50.3125C14.2188 50.9162 13.7277 51.4062 13.125 51.4062C12.5223 51.4062 12.0312 50.9162 12.0312 50.3125L12.0312 40.4688L9.84375 40.4688ZM17.5 43.75L17.5 53.5938L19.6875 53.5938L19.6875 51.4062L21.875 51.4062L21.875 53.5938L24.0625 53.5938L24.0625 43.75C24.0625 41.9409 22.5903 40.4688 20.7812 40.4688C18.9722 40.4688 17.5 41.9409 17.5 43.75ZM21.875 43.75L21.875 49.2188L19.6875 49.2188L19.6875 43.75C19.6875 43.1463 20.1786 42.6562 20.7812 42.6562C21.3839 42.6562 21.875 43.1463 21.875 43.75ZM32.8125 43.75L32.8125 53.5938L35 53.5938L35 51.4062L37.1875 51.4062L37.1875 53.5938L39.375 53.5938L39.375 43.75C39.375 41.9409 37.9028 40.4688 36.0938 40.4688C34.2847 40.4688 32.8125 41.9409 32.8125 43.75ZM36.0938 42.6562C36.6975 42.6562 37.1875 43.1463 37.1875 43.75L37.1875 49.2188L35 49.2188L35 43.75C35 43.1463 35.4911 42.6562 36.0938 42.6562ZM25.1562 41.5625L25.1562 47.0269L25.1562 53.5938L27.3438 53.5938L27.3438 50.1495L29.7708 53.1836C29.9786 53.4428 30.2925 53.5938 30.625 53.5938L31.7188 53.5938L31.7188 51.4062L31.15 51.4062L28.4878 48.078C30.3166 47.7903 31.7188 46.2044 31.7188 44.2969C31.7188 42.1859 30.0016 40.4688 27.8906 40.4688L26.25 40.4688C25.6462 40.4688 25.1562 40.9577 25.1562 41.5625ZM27.3438 42.6562L27.8906 42.6562C28.7952 42.6562 29.5312 43.3923 29.5312 44.2969C29.5312 45.2014 28.7952 45.9375 27.8906 45.9375L27.3438 45.9375L27.3438 42.6562ZM44.8438 46.8212L42.5786 41.1567C42.3828 40.6678 41.8622 40.3955 41.3558 40.4884C40.8406 40.5869 40.4688 41.0386 40.4688 41.5625L40.4688 53.5938L42.6562 53.5938L42.6562 47.2412L44.9214 52.9058C45.0909 53.328 45.4978 53.5938 45.9364 53.5938C46.0053 53.5938 46.0753 53.5872 46.1442 53.5741C46.6594 53.4756 47.0312 53.0239 47.0312 52.5L47.0312 40.4688L44.8438 40.4688L44.8438 46.8212ZM52.5 42.6562L54.6875 42.6562L54.6875 40.4688L48.125 40.4688L48.125 42.6562L50.3125 42.6562L50.3125 53.5938L52.5 53.5938L52.5 42.6562ZM61.25 42.6562L61.25 40.4688L56.875 40.4688C56.2702 40.4688 55.7812 40.9577 55.7812 41.5625L55.7812 52.5C55.7812 53.1048 56.2702 53.5938 56.875 53.5938L61.25 53.5938L61.25 51.4062L57.9688 51.4062L57.9688 48.125L61.25 48.125L61.25 45.9375L57.9688 45.9375L57.9688 42.6562L61.25 42.6562ZM62.3438 41.5625L62.3438 52.5C62.3438 53.1048 62.8327 53.5938 63.4375 53.5938L67.8125 53.5938L67.8125 51.4062L64.5312 51.4062L64.5312 48.125L67.8125 48.125L67.8125 45.9375L64.5312 45.9375L64.5312 42.6562L67.8125 42.6562L67.8125 40.4688L63.4375 40.4688C62.8327 40.4688 62.3438 40.9577 62.3438 41.5625Z" fill="rgb(0,103,182)" fill-rule="nonzero" />
	<path id="path" d="M62.3438 35C62.3438 19.9227 50.0773 7.65625 35 7.65625C19.9227 7.65625 7.65625 19.9227 7.65625 35C7.65625 36.1014 7.73062 37.2509 7.87609 38.4169L10.0461 38.1456C9.91156 37.0694 9.84375 36.0106 9.84375 35C9.84375 21.1291 21.1291 9.84375 35 9.84375C48.872 9.84375 60.1562 21.1291 60.1562 35C60.1562 36.0106 60.0884 37.0694 59.9528 38.1456L62.1228 38.4169C62.2705 37.2509 62.3438 36.1014 62.3438 35ZM51.6983 56.6464L50.3606 54.9161C45.9211 58.3439 40.6109 60.1562 35 60.1562C29.3902 60.1562 24.0789 58.3439 19.6405 54.9161L18.3028 56.6464C23.1284 60.3739 28.9013 62.3437 35 62.3437C41.0988 62.3437 46.8727 60.3739 51.6983 56.6464Z" fill="rgb(0,103,182)" fill-rule="nonzero" />
	<path id="path" d="M24.0625 22.9688L21.875 22.9688L21.875 25.1562L22.9688 25.1562L22.9688 36.0938L25.1562 36.0938L25.1562 24.0625C25.1562 23.4587 24.6663 22.9688 24.0625 22.9688ZM30.0781 22.9688C27.9672 22.9688 26.25 24.6859 26.25 26.7969L26.25 32.2656C26.25 34.3766 27.9672 36.0938 30.0781 36.0938C32.1891 36.0938 33.9062 34.3766 33.9062 32.2656L33.9062 26.7969C33.9062 24.6859 32.1891 22.9688 30.0781 22.9688ZM31.7188 32.2656C31.7188 33.1702 30.9827 33.9062 30.0781 33.9062C29.1736 33.9062 28.4375 33.1702 28.4375 32.2656L28.4375 26.7969C28.4375 25.8923 29.1736 25.1562 30.0781 25.1562C30.9827 25.1562 31.7188 25.8923 31.7188 26.7969L31.7188 32.2656ZM38.8281 22.9688C36.7172 22.9688 35 24.6859 35 26.7969L35 32.2656C35 34.3766 36.7172 36.0938 38.8281 36.0938C40.9391 36.0938 42.6562 34.3766 42.6562 32.2656L42.6562 26.7969C42.6562 24.6859 40.9391 22.9688 38.8281 22.9688ZM40.4688 32.2656C40.4688 33.1702 39.7327 33.9062 38.8281 33.9062C37.9236 33.9062 37.1875 33.1702 37.1875 32.2656L37.1875 26.7969C37.1875 25.8923 37.9236 25.1562 38.8281 25.1562C39.7327 25.1562 40.4688 25.8923 40.4688 26.7969L40.4688 32.2656Z" fill="rgb(0,103,182)" fill-rule="nonzero" />
	<path id="path" d="M46.0513 34.5112L50.4263 25.7612L52.383 26.739L48.008 35.489L46.0513 34.5112Z" fill="rgb(0,103,182)" fill-rule="nonzero" />
	<rect id="rect" width="2.187500" height="2.187500" x="44.843750" y="27.343750" fill="rgb(0,103,182)" />
	<rect id="rect" width="2.187500" height="2.187500" x="51.406250" y="31.718750" fill="rgb(0,103,182)" />
	<g id="g" />
	<g id="g" />
	<g id="g" />
	<g id="g" />
	<g id="g" />
	<g id="g" />
	<g id="g" />
	<g id="g" />
	<g id="g" />
	<g id="g" />
	<g id="g" />
	<g id="g" />
	<g id="g" />
	<g id="g" />
	<g id="g" />
</svg>
